<svg id="Capa_1" enable-background="new 0 0 512 512" height="512" viewBox="0 0 512 512" width="512" xmlns="http://www.w3.org/2000/svg"><g><g><g><g><g><path d="m178.874 411.117v-70.776c0-.581-.252-1.133-.691-1.513l-26.269-22.726c-.922-.798-.922-2.227 0-3.025l26.269-22.727c.439-.38.691-.932.691-1.513v-42.126c0-1.105-.895-2-2-2h-60.277c-1.105 0-2 .895-2 2v255.789c0 1.105.895 2 2 2h29.261c.56 0 1.094-.234 1.472-.646l31.017-33.737c.339-.369.528-.852.528-1.354v-6.137c0-.581-.252-1.133-.691-1.512l-26.269-22.729c-.922-.798-.922-2.227 0-3.025l26.269-22.729c.438-.381.69-.933.69-1.514z" fill="#eaf6ff"/></g></g></g><g><g><g><path d="m138.595 504.5h-22c-1.1 0-2-.9-2-2v-255.79c0-1.1.9-2 2-2h22c-1.1 0-2 .9-2 2v255.79c0 1.1.9 2 2 2z" fill="#d8ecfe"/></g></g></g><g><g><path d="m223.585 83.68h-153.7c-6.63 0-12 5.37-12 12v165.81c0 6.63 5.37 12 12 12h153.7c6.63 0 12-5.37 12-12v-165.81c0-6.63-5.37-12-12-12zm-23 72.6c0 2.21-1.79 4-4 4h-99.7c-2.21 0-4-1.79-4-4v-33.6c0-2.21 1.79-4 4-4h99.7c2.21 0 4 1.79 4 4z" fill="#8d9ca8"/></g></g><g><g><path d="m442.115 83.68h-153.7c-6.63 0-12 5.37-12 12v282.38c0 6.63 5.37 12 12 12h153.7c6.63 0 12-5.37 12-12v-282.38c0-6.63-5.37-12-12-12zm-23 68.34c0 2.21-1.79 4-4 4h-99.7c-2.21 0-4-1.79-4-4v-29.34c0-2.21 1.79-4 4-4h99.7c2.21 0 4 1.79 4 4z" fill="#8d9ca8"/></g></g><g><g><path d="m91.885 273.49h-22c-6.63 0-12-5.37-12-12v-165.81c0-6.63 5.37-12 12-12h22c-6.63 0-12 5.37-12 12v165.81c0 6.63 5.37 12 12 12z" fill="#7a8c98"/></g></g><g><g><path d="m310.415 390.06h-22c-6.63 0-12-5.37-12-12v-282.38c0-6.63 5.37-12 12-12h22c-6.63 0-12 5.37-12 12v282.38c0 6.63 5.37 12 12 12z" fill="#7a8c98"/></g></g><g><g><path d="m311.416 347.064v-125.426c0-4.418 3.582-8 8-8h91.702c4.418 0 8 3.582 8 8v125.426c0 4.418-3.582 8-8 8h-91.702c-4.418 0-8-3.582-8-8z" fill="#eaf6ff"/></g></g><g><g><path d="m341.415 355.06h-22c-4.42 0-8-3.58-8-8v-125.42c0-4.42 3.58-8 8-8h22c-4.42 0-8 3.58-8 8v125.42c0 4.42 3.58 8 8 8z" fill="#d8ecfe"/></g></g></g><g><path d="m454.115 229.47c4.143 0 7.5-3.358 7.5-7.5v-126.29c0-10.752-8.748-19.5-19.5-19.5h-91.24c-7.422-20.926-21.061-39.627-38.866-53.094-19.967-15.103-43.79-23.086-68.894-23.086-25.1 0-48.92 7.983-68.886 23.086-17.805 13.469-31.444 32.171-38.865 53.095h-65.479c-10.752 0-19.5 8.748-19.5 19.5v165.813c0 10.752 8.748 19.5 19.5 19.5h37.21v113.566c0 4.142 3.358 7.5 7.5 7.5s7.5-3.358 7.5-7.5v-113.566h49.28v5.331l-24.381 21.096c-2.086 1.813-3.277 4.438-3.269 7.202.008 2.759 1.212 5.372 3.283 7.149l24.367 21.083v65.749l-24.382 21.097c-2.085 1.814-3.276 4.439-3.268 7.203.009 2.758 1.213 5.37 3.283 7.147l24.367 21.083v1.485l-27.93 30.381h-21.35v-67.44c0-4.142-3.358-7.5-7.5-7.5s-7.5 3.358-7.5 7.5v72.94c0 5.238 4.262 9.5 9.5 9.5h29.26c2.682 0 5.249-1.137 7.001-3.074l31.013-33.733c1.616-1.76 2.505-4.044 2.505-6.433v-6.13c0-2.767-1.197-5.389-3.283-7.192l-21.46-18.568 21.455-18.563c2.089-1.805 3.288-4.424 3.288-7.187v-70.78c0-2.763-1.199-5.382-3.283-7.182l-21.46-18.568 21.455-18.563c2.089-1.805 3.288-4.424 3.288-7.187v-7.846h37.212c10.752 0 19.5-8.748 19.5-19.5v-32.905h.028c8.744 0 17.383-.999 25.8-2.945v152.416c0 10.752 8.748 19.5 19.5 19.5h153.7c10.752 0 19.5-8.748 19.5-19.5v-121.09c0-4.142-3.357-7.5-7.5-7.5s-7.5 3.358-7.5 7.5v121.09c0 2.481-2.019 4.5-4.5 4.5h-153.7c-2.481 0-4.5-2.019-4.5-4.5v-282.38c0-2.481 2.019-4.5 4.5-4.5h51.275c1.56 6.537 2.459 13.233 2.669 20h-26.943c-6.341 0-11.5 5.159-11.5 11.5v29.341c0 6.341 5.159 11.5 11.5 11.5h99.702c6.341 0 11.5-5.159 11.5-11.5v-29.341c0-6.341-5.159-11.5-11.5-11.5h-57.759c-.182-6.747-.957-13.435-2.307-20h87.063c2.481 0 4.5 2.019 4.5 4.5v126.29c.001 4.142 3.359 7.5 7.501 7.5zm-135.199-103.289h22.773c-.905 7.647-2.684 15.123-5.337 22.341h-17.436zm92.702 22.34h-59.422c2.283-7.273 3.822-14.744 4.6-22.341h54.822zm-183.531 112.973c0 2.481-2.019 4.5-4.5 4.5h-153.702c-2.481 0-4.5-2.019-4.5-4.5v-165.813c0-2.481 2.019-4.5 4.5-4.5h61.304c-1.351 6.566-2.126 13.254-2.307 20h-31.997c-6.341 0-11.5 5.159-11.5 11.5v33.596c0 6.341 5.159 11.5 11.5 11.5h99.702c6.341 0 11.5-5.159 11.5-11.5v-33.596c0-6.341-5.159-11.5-11.5-11.5h-52.706c.21-6.766 1.109-13.461 2.669-20h77.036c2.481 0 4.5 2.019 4.5 4.5v165.813zm-98.636-135.313c.934 9.12 2.939 18.016 6.011 26.596h-35.077v-26.596zm22.107 26.595c-3.583-8.501-5.932-17.398-7.019-26.596h48.549v26.596zm117.357-57.096v114.505c-8.368 2.249-17.02 3.405-25.8 3.405-.009 0-.019 0-.028 0v-117.909c0-10.752-8.748-19.5-19.5-19.5h-72.153c15.221-36.473 51.556-61.181 91.681-61.181 40.129 0 76.466 24.706 91.69 61.18h-46.39c-10.752 0-19.5 8.748-19.5 19.5z"/><path d="m411.118 206.138h-91.702c-8.547 0-15.5 6.953-15.5 15.5v125.426c0 8.547 6.953 15.5 15.5 15.5h91.702c8.547 0 15.5-6.953 15.5-15.5v-125.426c0-8.547-6.953-15.5-15.5-15.5zm-91.702 15h91.702c.275 0 .5.224.5.5v55.212h-92.702v-55.212c0-.276.225-.5.5-.5zm91.702 126.426h-91.702c-.275 0-.5-.224-.5-.5v-55.214h92.702v55.214c0 .276-.224.5-.5.5z"/></g></g></svg>